<?xml version="1.0" encoding="utf-8"?>
<!-- Generator: Adobe Illustrator 16.0.0, SVG Export Plug-In . SVG Version: 6.00 Build 0)  -->
<!DOCTYPE svg PUBLIC "-//W3C//DTD SVG 1.1//EN" "http://www.w3.org/Graphics/SVG/1.1/DTD/svg11.dtd" [
	<!ENTITY ns_extend "http://ns.adobe.com/Extensibility/1.0/">
	<!ENTITY ns_ai "http://ns.adobe.com/AdobeIllustrator/10.0/">
	<!ENTITY ns_graphs "http://ns.adobe.com/Graphs/1.0/">
	<!ENTITY ns_vars "http://ns.adobe.com/Variables/1.0/">
	<!ENTITY ns_imrep "http://ns.adobe.com/ImageReplacement/1.0/">
	<!ENTITY ns_sfw "http://ns.adobe.com/SaveForWeb/1.0/">
	<!ENTITY ns_custom "http://ns.adobe.com/GenericCustomNamespace/1.0/">
	<!ENTITY ns_adobe_xpath "http://ns.adobe.com/XPath/1.0/">
]>
<svg version="1.1" id="Layer_1" xmlns:x="&ns_extend;" xmlns:i="&ns_ai;" xmlns:graph="&ns_graphs;"
	 xmlns="http://www.w3.org/2000/svg" xmlns:xlink="http://www.w3.org/1999/xlink" x="0px" y="0px" width="808.019px" height="166px"
	 viewBox="0 0 808.019 166" enable-background="new 0 0 808.019 166" xml:space="preserve">
<metadata>
	<sfw  xmlns="&ns_sfw;">
		<slices>
			<slice  width="809" height="167" sliceID="319835737" x="53" y="223"></slice>
		</slices>
		<sliceSourceBounds  width="810.098" height="168.094" x="53" y="221.906" bottomLeftOrigin="true"></sliceSourceBounds>
	</sfw>
</metadata>
<g>
	<path display="none" fill-rule="evenodd" clip-rule="evenodd" fill="#E5E5E5" d="M1,0.5c268.167,0,536.333,0.009,804.5-0.093
		c3.748-0.001,4.606,0.842,4.597,4.593c-0.142,52.833-0.139,105.667,0.001,158.5c0.009,3.425-0.674,4.096-4.098,4.095
		c-267-0.103-534-0.103-801,0c-3.423,0.001-4.106-0.669-4.097-4.094C1.041,109.167,1,54.833,1,0.5z M587.944,37.596
		c-2.813-4.353-9.334-4.497-11.946-0.263c-2.668,0.073-1.211,1.69-0.846,2.601c4.942,12.349,10.123,24.607,14.843,37.041
		c1.545,4.068,5.352,7.738,3.313,12.762c-5.922,14.59-11.963,29.134-17.696,43.798c-0.684,1.749-3.135,3.857-0.613,6.133
		c2.921,4.723,8.792,4.594,11.946-0.263l-0.039,0.039c2.87-0.309,4.215-2.239,5.176-4.703c1.93-4.944,3.959-9.849,5.923-14.779
		c0.607-1.523,0.873-3.415,3.077-3.339c2.162,0.074,2.374,1.972,2.954,3.499c1.651,4.341,3.312,8.678,4.997,13.004
		c1.933,4.957,5.349,8.394,10.577,9.664c3.381,0.822,6.506,0.36,8.393-3.123c2.175-1.439,0.515-2.905-0.037-4.279
		c-6.17-15.35-12.385-30.681-18.563-46.027c-0.638-1.584-0.613-3.208,0.058-4.827c1.554-3.745,3.061-7.51,4.593-11.264
		c4.292-10.517,8.677-20.999,12.709-31.614c0.309-0.811,3.507-3.7-0.759-4.322c-0.184-1.739-1.17-2.518-2.886-2.829
		c-6.167-1.116-11.574,1.829-13.921,7.762c-1.637,4.138-3.168,8.318-4.838,12.443c-0.617,1.527-1.428,3.312-3.268,3.37
		c-2.083,0.066-2.342-2.082-2.922-3.532c-1.224-3.059-2.074-6.276-3.414-9.278c-1.443-3.234-2.465-7.018-6.849-7.712L587.944,37.596
		z M115.599,66.271c0.897,0.604,1.554,0.843,1.906,1.312c9.183,12.184,18.563,24.204,28.439,35.843
		c9.032,10.644,17.774,21.535,26.771,32.209c1.611,1.911,3.323,4.923,6.145,4.17c2.954-0.788,2.547-4.436,3.008-6.81
		c5.196-26.764,9.842-53.639,15.341-80.338c2.504-12.158,2.959-11.732,10.885-13.151c1.182-0.211,3.063,0.469,2.762-1.741
		c-0.271-2-2.084-1.221-3.232-1.229c-9.827-0.065-19.655-0.044-29.482-0.032c-1.805,0.002-3.815-0.238-3.943,2.743
		c1.345,0.087,2.646,0.209,3.948,0.249c6.079,0.184,7.771,1.999,7.89,8.063c0.046,2.362-0.646,4.541-0.989,6.807
		c-2.845,18.835-5.597,37.684-8.379,56.549c-1.907-0.296-1.873-1.992-2.621-2.963c-18.506-24.034-38.566-46.838-56.503-71.322
		c-1.016-1.387-2.279-2.588-4.181-2.049c-1.879,0.532-2.134,2.255-2.354,3.883c-1.052,7.777-2.739,15.461-4.272,23.129
		c-3.745,18.726-7.022,37.542-10.902,56.232c-1.498,7.218-0.488,16.979-12.227,17.517c-1.017,0.046-3.646-0.885-3.277,1.627
		c0.248,1.688,2.271,1.542,3.795,1.54c9.328-0.016,18.657,0.08,27.982-0.079c1.917-0.033,5.382,1.355,5.512-1.167
		c0.142-2.759-3.392-2.712-5.747-2.733c-2.718-0.025-4.626-1.055-4.799-3.859c-0.205-3.317-0.425-6.718,0.061-9.979
		C109.805,102.748,112.688,84.835,115.599,66.271z M455.994,88.401c0,15.659-0.023,31.318,0.034,46.978
		c0.006,1.729-1.021,4.181,2.48,4.155c11.994-0.09,23.995,0.213,35.979-0.149c5.18-0.157,1.685-4.642,2.424-7.028
		c0.876-2.829-0.432-4.056-3.652-3.941c-7.154,0.254-14.33-0.096-21.484,0.154c-3.199,0.112-3.884-0.976-3.83-3.959
		c0.176-9.826,0.159-19.658,0.007-29.484c-0.043-2.776,0.667-3.813,3.586-3.679c4.987,0.228,9.993,0.061,14.99,0.06
		c7.792-0.002,7.672,0,7.545-7.656c-0.042-2.556-0.657-3.494-3.348-3.413c-6.158,0.185-12.33-0.079-18.488,0.111
		c-3.022,0.093-4.438-0.428-4.315-3.976c0.282-8.153,0.204-16.325,0.028-24.484c-0.061-2.834,0.769-3.729,3.626-3.641
		c6.491,0.198,13.015-0.272,19.482,0.167c4.795,0.326,4.104-2.574,3.908-5.299c-0.185-2.541,1.691-6.125-3.779-5.928
		c-10.315,0.371-20.658,0.279-30.979,0.015c-3.675-0.094-4.325,1.18-4.288,4.521C456.089,57.415,455.994,72.909,455.994,88.401z
		 M49.166,138.503c5.162,0,10.333,0.175,15.482-0.077c2.411-0.118,6.633,1.55,6.75-1.712c0.085-2.376-4.369-2.291-7.076-2.196
		c-3.805,0.134-5.675-1.636-5.287-5.389c0.572-5.54,1.125-11.099,2.083-16.581c3.202-18.33,6.283-36.69,10.034-54.911
		c1.582-7.686,0.203-18.306,13.08-18.34c0.529-0.001,1.499-1.11,1.493-1.695c-0.014-1.451-1.384-1.077-2.269-1.079
		c-11.989-0.029-23.978-0.026-35.967-0.007c-1.111,0.002-2.502-0.224-2.387,1.623c0.09,1.45,1.229,1.214,2.188,1.367
		c7.522,1.196,8.971,3.336,7.546,10.369c-1.717,8.475-3.359,16.97-4.798,25.496c-2.797,16.58-5.466,33.181-9.1,49.604
		c-0.559,2.524-1.369,5.047-2.458,7.387c-1.431,3.078-4.8,1.472-7.051,2.532c-1.131,0.533-3.517-0.103-3.295,2.176
		c0.227,2.32,2.295,1.361,3.549,1.384C37.509,138.563,43.338,138.502,49.166,138.503z M356.007,94.506
		c0-10.663-0.032-21.326,0.015-31.989c0.02-4.47-1.454-10.278,0.774-13.041c2.358-2.925,8.416-0.633,12.841-0.968
		c0.166-0.013,0.337-0.025,0.5,0.001c2.993,0.487,4.363-0.591,3.904-3.777c-0.212-1.469-0.154-3.005-0.012-4.491
		c0.218-2.278-0.843-2.789-2.917-2.779c-14.328,0.064-28.657,0.02-42.985,0.059c-1.178,0.003-2.552-0.524-3.137,1.465
		c-1.852,6.302,0.305,9.517,6.633,9.52c2.166,0.001,4.359,0.22,6.492-0.046c3.835-0.478,5.009,0.793,4.978,4.819
		c-0.198,25.823-0.1,51.649-0.099,77.474c0,8.887,0.002,8.743,8.884,8.828c3.176,0.031,4.256-0.722,4.208-4.09
		C355.891,121.833,356.005,108.168,356.007,94.506z M723.994,93.781c0,12.496-0.001,24.992,0,37.487c0,8.296,0.006,8.094,8.396,8.33
		c3.679,0.103,4.741-0.802,4.712-4.621c-0.19-24.49-0.112-48.983-0.08-73.475c0.005-4.134-1.36-9.65,0.739-12.043
		c2.467-2.813,8.129-0.631,12.391-0.949c0.332-0.024,0.674-0.049,0.998,0.003c3.021,0.493,4.339-0.635,3.89-3.795
		c-0.209-1.47-0.154-3.005-0.011-4.491c0.221-2.295-0.877-2.772-2.932-2.763c-14.328,0.063-28.657,0.02-42.986,0.058
		c-1.18,0.003-2.547-0.512-3.124,1.48c-1.835,6.341,0.292,9.503,6.649,9.506c2.333,0.001,4.691,0.22,6.992-0.049
		c3.473-0.406,4.508,0.769,4.45,4.337C723.86,66.455,723.991,80.119,723.994,93.781z M258.013,83.019
		c0,17.983,0.012,35.967-0.007,53.95c-0.006,5.68-1.786,7.496-7.318,7.557c-3.164,0.035-6.328,0.023-9.491-0.002
		c-2.13-0.017-4.148,0.099-4.144,2.982c0.004,2.809,1.946,3.227,4.106,3.065c5.875-0.442,11.957,1.364,17.605-1.837
		c1.2-0.681,2.912-0.415,4.346,0.314c5.836,2.967,12.089,1.093,18.146,1.451c1.788,0.105,3.394-1.222,3.407-2.959
		c0.013-1.764-1.577-2.882-3.412-2.946c-3.16-0.111-6.326-0.048-9.489-0.061c-6.6-0.027-7.708-1.126-7.711-7.86
		c-0.013-27.142-0.006-54.284-0.006-81.425c0-9.158,0.117-18.319-0.05-27.474c-0.08-4.393,1.447-6.557,6.086-6.254
		c3.316,0.217,6.662-0.061,9.987,0.073c2.438,0.098,4.712-0.43,4.585-3.128c-0.105-2.243-2.327-3.052-4.529-2.848
		c-6.146,0.568-12.68-1.714-18.339,2.479c-0.633,0.47-1.25,0.199-1.824-0.184c-6.081-4.049-12.924-1.679-19.411-2.291
		c-2.154-0.204-3.579,0.603-3.507,3.051c0.075,2.519,1.774,2.888,3.777,2.883c2.998-0.006,5.995-0.003,8.992,0.006
		c6.979,0.022,8.191,1.187,8.196,8.008C258.021,47.384,258.013,65.201,258.013,83.019z M789.526,29.707
		c0.628,1.265,1.134,1.962,1.323,2.737c0.341,1.388,0,3.242,2.346,2.963c2.664-0.316,1.77-2.464,1.743-3.899
		c-0.053-2.958-1.31-5.791-0.995-8.83c0.187-1.797-1.069-2.054-2.566-2.194c-4.781-0.447-3.447,3.977-4.82,6.193
		c-1.816-1.921-0.609-5.896-4.313-6.085c-4.314-0.221-8.647-0.082-12.972-0.056c-0.79,0.005-1.753-0.058-2.009,1.014
		c-0.305,1.281,0.413,1.879,1.576,1.924c2.196,0.083,2.16,1.604,2.159,3.155c-0.002,2.163,0.015,4.325,0.023,6.488
		c0.005,1.295,0.343,2.268,1.921,2.3c1.549,0.032,2.02-0.846,2.029-2.187c0.016-2.329,0.025-4.658,0.034-6.987
		c0.007-1.409,0.101-2.751,2.047-2.669c2.356,0.099,1.457,1.453,1.163,2.75c-0.252,1.115-0.415,2.37-0.16,3.456
		c0.455,1.938-1.692,5.456,2.046,5.47c3.396,0.013,1.266-3.388,1.94-5.149c0.095-0.246,0.256-0.465,0.439-0.79
		c1.457,1.971-0.009,6.036,3.757,6.02C789.102,35.319,788.607,32.268,789.526,29.707z"/>
	<path fill-rule="evenodd" clip-rule="evenodd" fill="#EAEAEA" d="M115.599,66.271c-2.911,18.564-5.794,36.477-8.463,54.421
		c-0.486,3.261-0.266,6.662-0.061,9.979c0.173,2.804,2.082,3.834,4.799,3.859c2.354,0.021,5.889-0.026,5.747,2.733
		c-0.13,2.522-3.595,1.134-5.512,1.167c-9.325,0.158-18.654,0.063-27.982,0.079c-1.524,0.002-3.547,0.148-3.795-1.54
		c-0.369-2.513,2.261-1.581,3.277-1.627c11.738-0.538,10.729-10.299,12.227-17.517c3.88-18.691,7.157-37.507,10.902-56.232
		c1.533-7.668,3.22-15.352,4.272-23.129c0.22-1.628,0.475-3.351,2.354-3.883c1.902-0.539,3.165,0.662,4.181,2.049
		c17.937,24.484,37.997,47.288,56.503,71.322c0.748,0.971,0.714,2.667,2.621,2.963c2.783-18.866,5.535-37.714,8.379-56.549
		c0.342-2.267,1.035-4.445,0.989-6.807c-0.119-6.065-1.811-7.88-7.89-8.063c-1.302-0.04-2.603-0.162-3.948-0.249
		c0.128-2.981,2.139-2.74,3.943-2.743c9.828-0.012,19.655-0.034,29.482,0.032c1.147,0.007,2.96-0.771,3.232,1.229
		c0.301,2.21-1.58,1.53-2.762,1.741c-7.925,1.419-8.381,0.993-10.885,13.151c-5.499,26.7-10.146,53.574-15.341,80.338
		c-0.461,2.374-0.054,6.022-3.008,6.81c-2.822,0.752-4.534-2.26-6.145-4.17c-8.998-10.674-17.74-21.565-26.771-32.209
		c-9.876-11.639-19.256-23.66-28.439-35.843C117.153,67.114,116.497,66.875,115.599,66.271z"/>
	<path fill-rule="evenodd" clip-rule="evenodd" fill="#EAEAEA" d="M626.002,37.333c4.266,0.623,1.067,3.511,0.759,4.322
		c-4.032,10.615-8.417,21.097-12.709,31.614c-1.532,3.754-3.039,7.519-4.593,11.264c-0.671,1.619-0.695,3.243-0.058,4.827
		c6.179,15.346,12.394,30.677,18.563,46.027c0.552,1.374,2.212,2.84,0.037,4.279c-2.32-0.056-4.696-0.456-6.948-0.091
		c-3.875,0.627-5.674-1.317-6.826-4.525c-2.405-6.698-4.802-13.398-7.239-20.084c-1.889-5.181-3.833-10.341-6.084-16.401
		c-1.415,4.072-2.598,7.062-3.495,10.135c-3.037,10.409-8.065,20.135-10.504,30.745l0.039-0.039
		c-3.982,0.087-7.964,0.175-11.946,0.263c-2.521-2.276-0.07-4.384,0.613-6.133c5.733-14.664,11.774-29.208,17.696-43.798
		c2.039-5.023-1.768-8.693-3.313-12.762c-4.72-12.433-9.9-24.691-14.843-37.041c-0.365-0.91-1.822-2.527,0.846-2.601
		c3.982,0.087,7.965,0.175,11.946,0.263l-0.039-0.039c-0.319,2.476,1.366,4.315,2.146,6.417c3.784,10.209,7.75,20.351,11.953,31.303
		c3.204-9.382,6.108-17.88,9.007-26.379C614.749,37.937,614.746,37.936,626.002,37.333z"/>
	<path fill-rule="evenodd" clip-rule="evenodd" fill="#EAEAEA" d="M455.994,88.401c0-15.493,0.095-30.986-0.075-46.477
		c-0.037-3.341,0.613-4.616,4.288-4.521c10.321,0.264,20.664,0.355,30.979-0.015c5.471-0.197,3.595,3.388,3.779,5.928
		c0.196,2.725,0.887,5.625-3.908,5.299c-6.467-0.439-12.991,0.03-19.482-0.167c-2.858-0.087-3.688,0.807-3.626,3.641
		c0.176,8.159,0.254,16.331-0.028,24.484c-0.123,3.548,1.293,4.069,4.315,3.976c6.158-0.19,12.33,0.074,18.488-0.111
		c2.69-0.081,3.306,0.857,3.348,3.413c0.127,7.656,0.247,7.654-7.545,7.656c-4.997,0.001-10.003,0.168-14.99-0.06
		c-2.919-0.133-3.629,0.903-3.586,3.679c0.152,9.826,0.169,19.658-0.007,29.484c-0.054,2.983,0.631,4.071,3.83,3.959
		c7.154-0.25,14.33,0.1,21.484-0.154c3.221-0.114,4.528,1.113,3.652,3.941c-0.739,2.386,2.756,6.871-2.424,7.028
		c-11.983,0.362-23.985,0.06-35.979,0.149c-3.5,0.026-2.474-2.425-2.48-4.155C455.971,119.72,455.994,104.061,455.994,88.401z"/>
	<path fill-rule="evenodd" clip-rule="evenodd" fill="#EAEAEA" d="M49.166,138.502c-5.828,0-11.657,0.061-17.483-0.049
		c-1.254-0.023-3.322,0.936-3.549-1.384c-0.222-2.278,2.164-1.643,3.295-2.176c2.251-1.061,5.62,0.545,7.051-2.532
		c1.088-2.34,1.899-4.863,2.458-7.387c3.634-16.423,6.303-33.024,9.1-49.604c1.438-8.526,3.081-17.021,4.798-25.496
		c1.425-7.032-0.024-9.172-7.546-10.369c-0.958-0.152-2.098,0.083-2.188-1.367c-0.115-1.847,1.276-1.621,2.387-1.623
		c11.989-0.019,23.978-0.021,35.967,0.007c0.885,0.002,2.255-0.372,2.269,1.079c0.006,0.585-0.964,1.694-1.493,1.695
		c-12.877,0.034-11.498,10.654-13.08,18.34c-3.75,18.221-6.832,36.581-10.034,54.911c-0.958,5.482-1.511,11.041-2.083,16.581
		c-0.388,3.753,1.482,5.523,5.287,5.389c2.707-0.095,7.161-0.18,7.076,2.196c-0.118,3.263-4.339,1.594-6.75,1.712
		C59.499,138.678,54.328,138.503,49.166,138.502z"/>
	<path fill-rule="evenodd" clip-rule="evenodd" fill="#EAEAEA" d="M356.006,94.506c-0.001,13.662-0.115,27.326,0.08,40.985
		c0.048,3.368-1.032,4.121-4.208,4.09c-8.882-0.085-8.884,0.059-8.884-8.828c-0.001-25.825-0.099-51.65,0.099-77.474
		c0.031-4.026-1.142-5.297-4.978-4.819c-2.133,0.266-4.326,0.047-6.492,0.046c-6.329-0.002-8.485-3.218-6.633-9.52
		c0.585-1.99,1.959-1.462,3.137-1.465c14.329-0.039,28.657,0.005,42.985-0.059c2.074-0.01,3.136,0.5,2.917,2.779
		c-0.142,1.485-0.2,3.021,0.012,4.491c0.459,3.187-0.911,4.265-3.904,3.777c-0.163-0.026-0.333-0.014-0.5-0.001
		c-4.426,0.334-10.483-1.957-12.841,0.968c-2.228,2.763-0.754,8.571-0.774,13.041C355.975,73.18,356.007,83.843,356.006,94.506z"/>
	<path fill-rule="evenodd" clip-rule="evenodd" fill="#EAEAEA" d="M723.992,93.781c-0.001-13.663-0.132-27.327,0.087-40.985
		c0.058-3.568-0.978-4.744-4.45-4.337c-2.301,0.269-4.659,0.05-6.992,0.049c-6.357-0.002-8.484-3.165-6.649-9.506
		c0.577-1.992,1.944-1.477,3.124-1.48c14.329-0.038,28.658,0.005,42.986-0.058c2.055-0.009,3.152,0.468,2.932,2.763
		c-0.144,1.485-0.198,3.021,0.011,4.491c0.449,3.16-0.868,4.289-3.89,3.795c-0.324-0.053-0.666-0.028-0.998-0.003
		c-4.262,0.318-9.924-1.863-12.391,0.949c-2.1,2.394-0.734,7.909-0.739,12.043c-0.032,24.492-0.11,48.985,0.08,73.475
		c0.029,3.819-1.033,4.724-4.712,4.621c-8.391-0.236-8.396-0.034-8.396-8.33C723.993,118.773,723.994,106.277,723.992,93.781z"/>
	<path fill-rule="evenodd" clip-rule="evenodd" fill="#CCCCCC" d="M258.013,83.019c0-17.817,0.008-35.634-0.005-53.451
		c-0.005-6.821-1.217-7.986-8.196-8.008c-2.998-0.009-5.995-0.013-8.992-0.006c-2.003,0.004-3.703-0.364-3.777-2.883
		c-0.072-2.448,1.353-3.255,3.507-3.051c6.487,0.612,13.331-1.758,19.411,2.291c0.574,0.383,1.191,0.654,1.824,0.184
		c5.659-4.192,12.193-1.91,18.339-2.479c2.202-0.204,4.424,0.605,4.529,2.848c0.127,2.699-2.147,3.226-4.585,3.128
		c-3.325-0.134-6.671,0.145-9.987-0.073c-4.639-0.303-6.167,1.861-6.086,6.254c0.167,9.155,0.05,18.316,0.05,27.474
		c0,27.142-0.007,54.284,0.006,81.425c0.003,6.734,1.111,7.833,7.711,7.86c3.164,0.013,6.33-0.05,9.489,0.061
		c1.835,0.064,3.425,1.182,3.412,2.946c-0.013,1.737-1.619,3.065-3.407,2.959c-6.057-0.357-12.31,1.517-18.146-1.451
		c-1.434-0.729-3.146-0.995-4.346-0.314c-5.648,3.201-11.731,1.395-17.605,1.837c-2.16,0.162-4.102-0.256-4.106-3.065
		c-0.004-2.883,2.013-2.999,4.144-2.982c3.164,0.025,6.328,0.037,9.491,0.002c5.533-0.061,7.313-1.877,7.318-7.557
		C258.024,118.985,258.013,101.002,258.013,83.019z"/>
</g>
<rect id="_x3C_Slice_x3E_" y="-0.5" fill-rule="evenodd" clip-rule="evenodd" fill="none" width="809" height="167"/>
</svg>
