<?xml version="1.0" encoding="utf-8"?>
<!-- Generator: Adobe Illustrator 16.0.0, SVG Export Plug-In . SVG Version: 6.00 Build 0)  -->
<!DOCTYPE svg PUBLIC "-//W3C//DTD SVG 1.1//EN" "http://www.w3.org/Graphics/SVG/1.1/DTD/svg11.dtd" [
	<!ENTITY ns_extend "http://ns.adobe.com/Extensibility/1.0/">
	<!ENTITY ns_ai "http://ns.adobe.com/AdobeIllustrator/10.0/">
	<!ENTITY ns_graphs "http://ns.adobe.com/Graphs/1.0/">
	<!ENTITY ns_vars "http://ns.adobe.com/Variables/1.0/">
	<!ENTITY ns_imrep "http://ns.adobe.com/ImageReplacement/1.0/">
	<!ENTITY ns_sfw "http://ns.adobe.com/SaveForWeb/1.0/">
	<!ENTITY ns_custom "http://ns.adobe.com/GenericCustomNamespace/1.0/">
	<!ENTITY ns_adobe_xpath "http://ns.adobe.com/XPath/1.0/">
]>
<svg version="1.1" id="Layer_1" xmlns:x="&ns_extend;" xmlns:i="&ns_ai;" xmlns:graph="&ns_graphs;"
	 xmlns="http://www.w3.org/2000/svg" xmlns:xlink="http://www.w3.org/1999/xlink" x="0px" y="0px" width="84px" height="166px"
	 viewBox="0 0 84 166" enable-background="new 0 0 84 166" xml:space="preserve">
<metadata>
	<sfw  xmlns="&ns_sfw;">
		<slices>
			<slice  width="809" height="167" sliceID="319835737" x="53" y="223"></slice>
		</slices>
		<sliceSourceBounds  width="810.097" height="168.094" x="53" y="221.906" bottomLeftOrigin="true"></sliceSourceBounds>
	</sfw>
</metadata>
<g>
	<path display="none" fill-rule="evenodd" clip-rule="evenodd" fill="#E5E5E5" d="M-218,0.5c268.167,0,536.333,0.009,804.5-0.093
		c3.749-0.001,4.607,0.842,4.597,4.593c-0.142,52.833-0.139,105.667,0,158.5c0.009,3.425-0.673,4.096-4.097,4.095
		c-267-0.103-534-0.103-801,0c-3.423,0.001-4.106-0.669-4.097-4.094C-217.959,109.167-218,54.833-218,0.5z M368.945,37.596
		c-2.814-4.353-9.334-4.497-11.947-0.263c-2.667,0.073-1.21,1.69-0.846,2.601c4.943,12.349,10.124,24.607,14.843,37.041
		c1.544,4.068,5.352,7.738,3.313,12.762c-5.922,14.59-11.963,29.134-17.696,43.798c-0.684,1.749-3.136,3.857-0.614,6.133
		c2.921,4.723,8.792,4.594,11.947-0.263l-0.039,0.039c2.87-0.309,4.215-2.239,5.176-4.703c1.929-4.944,3.958-9.849,5.922-14.779
		c0.607-1.523,0.873-3.415,3.077-3.339c2.162,0.074,2.374,1.972,2.955,3.499c1.651,4.341,3.311,8.678,4.997,13.004
		c1.932,4.957,5.348,8.394,10.577,9.664c3.381,0.822,6.506,0.36,8.393-3.123c2.175-1.439,0.515-2.905-0.038-4.279
		c-6.169-15.35-12.385-30.681-18.563-46.027c-0.638-1.584-0.613-3.208,0.058-4.827c1.553-3.745,3.06-7.51,4.592-11.264
		c4.292-10.517,8.676-20.999,12.709-31.614c0.308-0.811,3.506-3.7-0.759-4.322c-0.184-1.739-1.17-2.518-2.886-2.829
		c-6.167-1.116-11.574,1.829-13.92,7.762c-1.637,4.138-3.169,8.318-4.838,12.443c-0.618,1.527-1.428,3.312-3.268,3.37
		c-2.083,0.066-2.343-2.082-2.922-3.532c-1.223-3.059-2.074-6.276-3.414-9.278c-1.443-3.234-2.466-7.018-6.849-7.712L368.945,37.596
		z M-103.401,66.271c0.898,0.604,1.554,0.843,1.906,1.312c9.183,12.184,18.563,24.204,28.439,35.843
		c9.032,10.644,17.774,21.535,26.772,32.209c1.611,1.911,3.323,4.923,6.145,4.17c2.954-0.788,2.547-4.436,3.008-6.81
		c5.196-26.764,9.842-53.639,15.341-80.338c2.504-12.158,2.96-11.732,10.885-13.151c1.182-0.211,3.062,0.469,2.762-1.741
		c-0.272-2-2.084-1.221-3.232-1.229c-9.827-0.065-19.655-0.044-29.482-0.032c-1.805,0.002-3.815-0.238-3.943,2.743
		c1.345,0.087,2.645,0.209,3.948,0.249c6.079,0.184,7.771,1.999,7.889,8.063c0.046,2.362-0.646,4.541-0.989,6.807
		c-2.845,18.835-5.596,37.684-8.379,56.549c-1.907-0.296-1.873-1.992-2.621-2.963c-18.507-24.034-38.566-46.838-56.503-71.322
		c-1.016-1.387-2.279-2.588-4.18-2.049c-1.88,0.532-2.134,2.255-2.354,3.883c-1.052,7.777-2.74,15.461-4.273,23.129
		c-3.745,18.726-7.022,37.542-10.902,56.232c-1.498,7.218-0.489,16.979-12.227,17.517c-1.017,0.046-3.646-0.885-3.278,1.627
		c0.248,1.688,2.271,1.542,3.796,1.54c9.328-0.016,18.657,0.08,27.982-0.079c1.917-0.033,5.382,1.355,5.511-1.167
		c0.142-2.759-3.392-2.712-5.747-2.733c-2.718-0.025-4.626-1.055-4.799-3.859c-0.205-3.317-0.425-6.718,0.061-9.979
		C-109.195,102.748-106.311,84.835-103.401,66.271z M236.994,88.401c0,15.659-0.023,31.318,0.034,46.978
		c0.006,1.729-1.021,4.181,2.48,4.155c11.994-0.09,23.996,0.213,35.979-0.149c5.18-0.157,1.684-4.642,2.423-7.028
		c0.876-2.829-0.432-4.056-3.652-3.941c-7.154,0.254-14.33-0.096-21.484,0.154c-3.199,0.112-3.884-0.976-3.83-3.959
		c0.176-9.826,0.159-19.658,0.007-29.484c-0.043-2.776,0.667-3.813,3.586-3.679c4.987,0.228,9.992,0.061,14.99,0.06
		c7.792-0.002,7.671,0,7.545-7.656c-0.042-2.556-0.658-3.494-3.348-3.413c-6.158,0.185-12.33-0.079-18.488,0.111
		c-3.022,0.093-4.438-0.428-4.315-3.976c0.282-8.153,0.204-16.325,0.028-24.484c-0.061-2.834,0.769-3.729,3.626-3.641
		c6.491,0.198,13.015-0.272,19.481,0.167c4.795,0.326,4.105-2.574,3.908-5.299c-0.184-2.541,1.691-6.125-3.779-5.928
		c-10.315,0.371-20.658,0.279-30.979,0.015c-3.675-0.094-4.325,1.18-4.288,4.521C237.089,57.415,236.994,72.909,236.994,88.401z
		 M-169.834,138.503c5.162,0,10.333,0.175,15.482-0.077c2.412-0.118,6.633,1.55,6.751-1.712c0.086-2.376-4.369-2.291-7.076-2.196
		c-3.805,0.134-5.675-1.636-5.287-5.389c0.572-5.54,1.125-11.099,2.083-16.581c3.202-18.33,6.283-36.69,10.034-54.911
		c1.582-7.686,0.203-18.306,13.079-18.34c0.529-0.001,1.5-1.11,1.494-1.695c-0.014-1.451-1.384-1.077-2.269-1.079
		c-11.989-0.029-23.978-0.026-35.967-0.007c-1.111,0.002-2.502-0.224-2.387,1.623c0.09,1.45,1.229,1.214,2.188,1.367
		c7.522,1.196,8.971,3.336,7.546,10.369c-1.717,8.475-3.359,16.97-4.798,25.496c-2.797,16.58-5.466,33.181-9.1,49.604
		c-0.558,2.524-1.369,5.047-2.457,7.387c-1.431,3.078-4.8,1.472-7.051,2.532c-1.131,0.533-3.518-0.103-3.295,2.176
		c0.227,2.32,2.294,1.361,3.549,1.384C-181.491,138.563-175.662,138.502-169.834,138.503z M137.007,94.506
		c0-10.663-0.032-21.326,0.015-31.989c0.02-4.47-1.454-10.278,0.774-13.041c2.358-2.925,8.416-0.633,12.841-0.968
		c0.166-0.013,0.337-0.025,0.5,0.001c2.993,0.487,4.363-0.591,3.904-3.777c-0.212-1.469-0.154-3.005-0.012-4.491
		c0.218-2.278-0.843-2.789-2.917-2.779c-14.328,0.064-28.657,0.02-42.985,0.059c-1.178,0.003-2.552-0.524-3.137,1.465
		c-1.852,6.302,0.305,9.517,6.633,9.52c2.166,0.001,4.359,0.22,6.492-0.046c3.835-0.478,5.009,0.793,4.978,4.819
		c-0.198,25.823-0.1,51.649-0.099,77.474c0,8.887,0.002,8.743,8.884,8.828c3.176,0.031,4.256-0.722,4.208-4.09
		C136.891,121.833,137.005,108.168,137.007,94.506z M504.994,93.781c0,12.496,0,24.992,0,37.487c0,8.296,0.007,8.094,8.397,8.33
		c3.679,0.103,4.741-0.802,4.711-4.621c-0.19-24.49-0.112-48.983-0.081-73.475c0.005-4.134-1.36-9.65,0.74-12.043
		c2.467-2.813,8.129-0.631,12.391-0.949c0.332-0.024,0.674-0.049,0.999,0.003c3.021,0.493,4.338-0.635,3.89-3.795
		c-0.209-1.47-0.154-3.005-0.011-4.491c0.221-2.295-0.877-2.772-2.932-2.763c-14.329,0.063-28.657,0.02-42.986,0.058
		c-1.181,0.003-2.548-0.512-3.125,1.48c-1.835,6.341,0.292,9.503,6.65,9.506c2.333,0.001,4.691,0.22,6.992-0.049
		c3.472-0.406,4.508,0.769,4.45,4.337C504.861,66.455,504.991,80.119,504.994,93.781z M39.013,83.019
		c0,17.983,0.012,35.967-0.007,53.95c-0.006,5.68-1.786,7.496-7.318,7.557c-3.163,0.035-6.328,0.023-9.491-0.002
		c-2.13-0.017-4.148,0.099-4.144,2.982c0.004,2.809,1.946,3.227,4.106,3.065c5.874-0.442,11.957,1.364,17.605-1.837
		c1.2-0.681,2.912-0.415,4.346,0.314c5.836,2.967,12.089,1.093,18.146,1.451c1.788,0.105,3.394-1.222,3.407-2.959
		c0.013-1.764-1.577-2.882-3.412-2.946c-3.16-0.111-6.326-0.048-9.489-0.061c-6.6-0.027-7.708-1.126-7.711-7.86
		c-0.013-27.142-0.006-54.284-0.006-81.425c0-9.158,0.117-18.319-0.05-27.474c-0.08-4.393,1.447-6.557,6.086-6.254
		c3.316,0.217,6.662-0.061,9.987,0.073c2.438,0.098,4.712-0.43,4.585-3.128c-0.105-2.243-2.327-3.052-4.529-2.848
		c-6.146,0.568-12.68-1.714-18.339,2.479c-0.633,0.47-1.25,0.199-1.824-0.184c-6.081-4.049-12.924-1.679-19.411-2.291
		c-2.154-0.204-3.579,0.603-3.507,3.051c0.075,2.519,1.774,2.888,3.778,2.883c2.997-0.006,5.995-0.003,8.992,0.006
		c6.98,0.022,8.192,1.187,8.197,8.008C39.021,47.384,39.013,65.201,39.013,83.019z M570.526,29.707
		c0.628,1.265,1.134,1.962,1.324,2.737c0.34,1.388,0,3.242,2.346,2.963c2.663-0.316,1.769-2.464,1.743-3.899
		c-0.052-2.958-1.309-5.791-0.995-8.83c0.186-1.797-1.069-2.054-2.567-2.194c-4.781-0.447-3.448,3.977-4.82,6.193
		c-1.817-1.921-0.61-5.896-4.313-6.085c-4.314-0.221-8.647-0.082-12.972-0.056c-0.789,0.005-1.752-0.058-2.008,1.014
		c-0.305,1.281,0.413,1.879,1.576,1.924c2.197,0.083,2.161,1.604,2.16,3.155c-0.002,2.163,0.015,4.325,0.023,6.488
		c0.005,1.295,0.343,2.268,1.92,2.3c1.55,0.032,2.02-0.846,2.029-2.187c0.017-2.329,0.025-4.658,0.035-6.987
		c0.006-1.409,0.101-2.751,2.046-2.669c2.356,0.099,1.457,1.453,1.164,2.75c-0.253,1.115-0.415,2.37-0.16,3.456
		c0.455,1.938-1.692,5.456,2.045,5.47c3.396,0.013,1.266-3.388,1.941-5.149c0.094-0.246,0.256-0.465,0.439-0.79
		c1.457,1.971-0.009,6.036,3.757,6.02C570.101,35.319,569.607,32.268,570.526,29.707z"/>
	<path fill-rule="evenodd" clip-rule="evenodd" fill="#CCCCCC" d="M39.013,83.019c0-17.817,0.008-35.634-0.005-53.451
		c-0.005-6.821-1.217-7.986-8.197-8.008c-2.997-0.009-5.994-0.013-8.992-0.006c-2.004,0.004-3.703-0.364-3.778-2.883
		c-0.073-2.448,1.353-3.255,3.507-3.051c6.488,0.612,13.331-1.758,19.411,2.291c0.574,0.383,1.191,0.654,1.824,0.184
		c5.659-4.192,12.193-1.91,18.339-2.479c2.202-0.204,4.424,0.605,4.529,2.848c0.127,2.699-2.147,3.226-4.585,3.128
		c-3.325-0.134-6.671,0.145-9.987-0.073c-4.639-0.303-6.167,1.861-6.086,6.254c0.167,9.155,0.05,18.316,0.05,27.474
		c0,27.142-0.007,54.284,0.006,81.425c0.003,6.734,1.111,7.833,7.711,7.86c3.164,0.013,6.33-0.05,9.489,0.061
		c1.835,0.064,3.425,1.182,3.412,2.946c-0.013,1.737-1.619,3.065-3.407,2.959c-6.057-0.357-12.31,1.517-18.146-1.451
		c-1.434-0.729-3.146-0.995-4.346-0.314c-5.649,3.201-11.731,1.395-17.605,1.837c-2.16,0.162-4.102-0.256-4.106-3.065
		c-0.004-2.883,2.013-2.999,4.144-2.982c3.164,0.025,6.328,0.037,9.491,0.002c5.533-0.061,7.313-1.877,7.318-7.557
		C39.024,118.985,39.013,101.002,39.013,83.019z"/>
</g>
<polyline id="_x3C_Slice_x3E__1_" fill-rule="evenodd" clip-rule="evenodd" fill="none" points="590,166.5 -219,166.5 -219,-0.5 
	590,-0.5 "/>
</svg>
